<?xml version="1.0" encoding="utf-8"?>
<!-- Generator: Adobe Illustrator 24.0.1, SVG Export Plug-In . SVG Version: 6.00 Build 0)  -->
<svg version="1.1" id="Calque_1" xmlns="http://www.w3.org/2000/svg" xmlns:xlink="http://www.w3.org/1999/xlink" x="0px" y="0px"
	 viewBox="0 0 512 512" style="enable-background:new 0 0 512 512;" xml:space="preserve">
<style type="text/css">
	.st0{fill:#808080;}
	.st1{fill:#404040;}
</style>
<g>
	<g>
		<path class="st0" d="M511.98,256.16c0,9.67,0.03,19.34-0.01,29.01c-0.03,8.77-3.88,13.18-12.47,14.24
			c-15.44,1.9-30.87,3.84-46.33,5.53c-3.07,0.34-4.36,1.48-5.17,4.45c-4.27,15.82-10.52,30.86-18.75,45.04
			c-1.35,2.33-1.21,3.88,0.46,5.98c9.6,12.05,19.06,24.22,28.54,36.36c6.09,7.8,5.76,13.39-1.15,20.3
			c-13.35,13.36-26.7,26.71-40.06,40.06c-6.89,6.89-12.52,7.18-20.3,1.09c-12.01-9.41-24.09-18.73-36-28.27
			c-2.4-1.92-4.12-2.05-6.75-0.5c-14.02,8.21-28.96,14.3-44.62,18.55c-2.99,0.81-4.09,2.15-4.42,5.19
			c-1.71,15.46-3.64,30.9-5.53,46.34c-1.03,8.36-5.5,12.42-13.82,12.44c-19.79,0.04-39.59,0.05-59.38-0.01
			c-7.86-0.02-12.51-4.08-13.47-11.78c-1.93-15.43-3.89-30.87-5.53-46.34c-0.38-3.63-1.73-5.11-5.2-6.05
			c-15.52-4.21-30.29-10.33-44.18-18.45c-2.49-1.46-4.11-1.29-6.34,0.49c-12.16,9.7-24.45,19.25-36.72,28.82
			c-7.04,5.5-12.97,5.21-19.27-1.06c-13.82-13.75-27.6-27.52-41.35-41.34c-5.89-5.92-6.22-11.92-1.05-18.58
			c9.54-12.29,19.1-24.57,28.83-36.71c2.02-2.52,2.16-4.35,0.54-7.15c-8.16-14.04-14.27-28.98-18.49-44.66
			c-0.75-2.77-2.03-3.86-4.91-4.18c-15.46-1.71-30.89-3.66-46.34-5.52c-8.59-1.04-12.68-5.46-12.71-14.08
			c-0.06-19.64-0.06-39.28,0-58.92c0.03-8.15,4.04-12.72,12.04-13.72c15.43-1.94,30.87-3.85,46.33-5.55
			c3.36-0.37,4.86-1.57,5.77-4.94c4.19-15.52,10.3-30.3,18.4-44.2c1.56-2.68,1.36-4.39-0.53-6.77
			c-9.62-12.03-19.09-24.2-28.55-36.36c-5.73-7.37-5.39-13.08,1.13-19.62c13.44-13.48,26.91-26.94,40.39-40.38
			c6.96-6.94,12.41-7.21,20.3-1.05c12.02,9.39,24.1,18.73,36,28.27c2.42,1.94,4.13,1.99,6.75,0.46
			c14.03-8.18,28.97-14.3,44.63-18.54c3-0.81,4.08-2.19,4.41-5.21c1.73-15.61,3.67-31.2,5.59-46.79c0.96-7.75,5.5-11.95,13.32-11.99
			c19.94-0.1,39.89-0.1,59.83,0c8.06,0.04,12.52,4.2,13.52,12.29c1.91,15.44,3.82,30.88,5.55,46.33c0.33,2.93,1.18,4.51,4.27,5.33
			c15.83,4.23,30.88,10.46,45.04,18.71c2.52,1.47,4.13,1.22,6.34-0.54c12.17-9.7,24.46-19.24,36.73-28.81
			c7.09-5.53,12.91-5.22,19.26,1.1c13.71,13.64,27.38,27.31,41.03,41.01c6.26,6.28,6.55,12.2,1.04,19.27
			c-9.57,12.27-19.12,24.56-28.81,36.73c-1.77,2.22-1.95,3.85-0.48,6.35c8.2,14.02,14.34,28.95,18.59,44.61
			c0.86,3.16,2.28,4.33,5.48,4.69c15.46,1.71,30.89,3.65,46.33,5.54c8.05,0.99,12.17,5.52,12.21,13.55
			C512.03,236.22,511.98,246.19,511.98,256.16z M255.99,403.86c81.07,1.36,146.7-66.95,148.14-144.59
			c1.57-84.35-67.61-150.23-145.8-151.32c-83.11-1.16-149.55,67.56-150.41,146.25C107.02,336.76,175.41,405.24,255.99,403.86z"/>
		<path class="st1" d="M255.99,403.86c-80.58,1.37-148.97-67.1-148.07-149.65c0.86-78.69,67.3-147.41,150.41-146.25
			c78.18,1.09,147.36,66.97,145.8,151.32C402.69,336.92,337.06,405.22,255.99,403.86z M182.54,255.83
			c-0.03,40.73,32.61,73.63,73.17,73.73c40.67,0.11,73.75-32.63,73.85-73.09c0.1-40.96-32.63-73.91-73.43-73.92
			C215.43,182.53,182.57,215.25,182.54,255.83z"/>
	</g>
</g>
</svg>
